<?xml version="1.0" encoding="UTF-8" standalone="no"?>
<svg
   viewBox="0 0 68.552216 88.248665"
   version="1.1"
   id="svg5"
   width="68.552216"
   height="88.248665"
   xmlns="http://www.w3.org/2000/svg"
   xmlns:svg="http://www.w3.org/2000/svg">
  <defs
     id="defs1">
    <marker
       style="overflow:visible"
       id="ArrowWideRounded"
       refX="0"
       refY="0"
       orient="270"
       markerWidth="1"
       markerHeight="1"
       viewBox="0 0 1 1"
       preserveAspectRatio="xMidYMid">
      <path
         style="fill:none;stroke:context-stroke;stroke-width:1;stroke-linecap:round"
         d="M 3,-3 0,0 3,3"
         transform="rotate(180,0.125,0)"
         id="path10" />
    </marker>
    <marker
       style="overflow:visible"
       id="ArrowWide"
       refX="0"
       refY="0"
       orient="auto-start-reverse"
       markerWidth="1"
       markerHeight="1"
       viewBox="0 0 1 1"
       preserveAspectRatio="none"
       markerUnits="strokeWidth">
      <path
         style="fill:none;stroke:context-stroke;stroke-width:1;stroke-linecap:butt"
         d="M 3,-3 0,0 3,3"
         transform="rotate(180,0.125,0)"
         id="path9" />
    </marker>
    <style
       id="style1">.cls-1{fill:#754c49;}.cls-2{fill:#9cc925;}</style>
  </defs>
  <title
     id="title1">tree</title>
  <path
     class="cls-1"
     d="m 49.052212,65.248668 c -0.03475,-0.221615 -0.05147,-0.445682 -0.05,-0.67 -0.0082,-0.159896 -0.0082,-0.320104 0,-0.48 l 0.07,-0.65 -0.58,-0.2 c -0.65101,-0.247297 -1.238625,-0.636762 -1.72,-1.14 l -0.4,-0.42 -0.54,0.2 c -1.76023,0.683211 -3.400691,1.641834 -4.86,2.84 -0.21,-1.25 -0.41,-2.25 -0.61,-3 -1.07,-3.94 -2.32,-7.94 -3.74,-11.92 3.129656,-1.531693 5.926386,-3.665772 8.23,-6.28 l 0.63,-0.68 -0.72,-0.6 c -0.640911,-0.494171 -1.166436,-1.122071 -1.54,-1.84 l -0.52,-1 -0.84,0.79 c -2.046692,1.978991 -4.505261,3.48145 -7.2,4.4 -0.65,-1.64 -4.259886,-16.316116 -6.217718,-18.385996 l -0.127108,-1.533254 -1.272892,1.263254 c -0.451224,0.454371 -2.118106,2.138659 -2.675446,2.453981 -0.425644,0.241319 -1.856137,0.595116 -2.321544,0.746125 l -2.532453,0.407367 c 0,0 1.740169,0.867381 2.134005,1.6833 4.861183,10.071038 9.883156,21.855223 10.873156,25.625223 0.491217,1.970462 0.825596,3.976736 1,6 -2.256368,-0.442749 -4.454198,-1.144042 -6.55,-2.09 l -0.41,-0.2 -0.4,0.23 -0.39,0.21 -0.55,0.24 0.09,0.62 c 0.0287,0.171965 0.04541,0.345717 0.05,0.52 -0.0033,0.470963 -0.08783,0.937825 -0.25,1.38 l -0.23,0.65 0.6,0.36 c 2.557523,1.558471 5.350236,2.693116 8.27,3.36 -0.140798,6.448591 -1.19116,12.845025 -3.12,19 l -0.36,1.11 h 13.15 l -0.07,-0.91 c 0,-0.08 -0.59,-8 -1.38,-15.14 1.38,-3.11 4.34,-5 6.59,-6 l 0.59,-0.27 z"
     id="path1" />
  <path
     class="cls-2"
     d="m 68.552212,58.688668 a 5.15,5.15 0 0 0 -3.52,-4.84 5.12,5.12 0 0 0 -2.53,-5.18 5.26,5.26 0 0 0 -6,0.59 5.24,5.24 0 0 0 -5.8,-0.42 5.12,5.12 0 0 0 -2.48,5.41 5.09,5.09 0 0 0 0.24,9.59 5.13,5.13 0 0 0 5.1,5.86 5.25,5.25 0 0 0 3.43,-1.27 5.24,5.24 0 0 0 5.8,0.42 5.12,5.12 0 0 0 2.49,-5.42 5.12,5.12 0 0 0 3.27,-4.74 z"
     id="path2" />
  <path
     class="cls-2"
     d="m 28.822212,57.248668 a 4.72,4.72 0 0 0 -3.15,-4.4 4.66,4.66 0 0 0 -2.33,-4.67 4.81,4.81 0 0 0 -5.43,0.49 4.79,4.79 0 0 0 -5.25,-0.34 4.69,4.69 0 0 0 -2.29,4.92 4.66,4.66 0 0 0 0.22,8.73 4.66,4.66 0 0 0 2.32,4.66 4.74,4.74 0 0 0 2.35,0.62 4.82,4.82 0 0 0 3.08,-1.11 4.8,4.8 0 0 0 5.25,0.34 4.68,4.68 0 0 0 2.29,-4.89 4.68,4.68 0 0 0 2.94,-4.35 z"
     id="path4" />
  <path
     style="fill:none;stroke:#ffae67;stroke-width:1px;stroke-linecap:butt;stroke-linejoin:miter;stroke-opacity:1;marker-start:url(#ArrowWide);marker-end:url(#ArrowWideRounded)"
     d="m 26.722201,32.383423 c 1.885378,4.805946 9.714238,25.031571 10.620223,31.647623 0.989438,7.225478 -0.191964,19.652812 -0.191964,19.652812"
     id="path6" />
  <path
     class="cls-2"
     d="m 65.053993,33.129443 a 5.72,5.72 0 0 0 -4.06,-5.42 5.64,5.64 0 0 0 -2.78,-5.92 5.81,5.81 0 0 0 -6.77,0.76 5.79,5.79 0 0 0 -6.56,-0.57 5.66,5.66 0 0 0 -2.72,6.18 5.64,5.64 0 0 0 0.27,10.74 5.65,5.65 0 0 0 2.78,5.89 5.81,5.81 0 0 0 6.77,-0.76 5.8,5.8 0 0 0 6.57,0.58 5.69,5.69 0 0 0 2.71,-6.18 5.66,5.66 0 0 0 3.79,-5.3 z"
     id="path5" />
  <path
     class="cls-2"
     d="m 37.199164,16.833578 a 7.82,7.82 0 0 0 -5.78,-7.4799997 7.72,7.72 0 0 0 -3.75,-8.33 8,8 0 0 0 -9.45,1.2 7.94,7.94 0 0 0 -9.1499996,-0.94 7.75,7.75 0 0 0 -3.67,8.7399997 7.73,7.73 0 0 0 0.38,14.85 7.73,7.73 0 0 0 3.76,8.31 8,8 0 0 0 9.4399996,-1.21 7.94,7.94 0 0 0 9.16,0.94 7.76,7.76 0 0 0 3.67,-8.68 7.77,7.77 0 0 0 5.39,-7.4 z"
     id="path3" />
  <path
     style="fill:none;stroke:#ffae67;stroke-width:0.7;stroke-linecap:round;stroke-linejoin:miter;stroke-dasharray:none;stroke-opacity:1"
     d="M 40.555738,83.226793 37.588018,81.029635 40.7795,79.250336"
     id="path11" />
  <path
     style="fill:none;stroke:#ffae67;stroke-width:0.7;stroke-linecap:round;stroke-linejoin:miter;stroke-dasharray:none;stroke-opacity:1"
     d="m 39.374204,62.21898 -1.816907,1.715471 2.46511,1.212201"
     id="path11-1" />
  <path
     style="fill:none;stroke:#ffae67;stroke-width:0.7;stroke-linecap:round;stroke-linejoin:miter;stroke-dasharray:none;stroke-opacity:1"
     d="m 31.247899,36.71929 -1.594642,2.174264 2.560247,0.212813"
     id="path11-1-7" />
  <path
     style="fill:none;stroke:#ffae67;stroke-width:0.7;stroke-linecap:round;stroke-linejoin:miter;stroke-dasharray:none;stroke-opacity:1"
     d="m 34.883362,76.596796 5.220679,0.561914"
     id="path12" />
  <path
     style="fill:none;stroke:#ffae67;stroke-width:0.7;stroke-linecap:round;stroke-linejoin:miter;stroke-dasharray:none;stroke-opacity:1"
     d="m 35.125071,74.156054 5.210138,-0.170371"
     id="path12-6" />
  <path
     style="fill:none;stroke:#ffae67;stroke-width:0.7;stroke-linecap:round;stroke-linejoin:miter;stroke-dasharray:none;stroke-opacity:1"
     d="m 35.192696,71.61717 5.220679,0.123542"
     id="path12-6-5" />
  <path
     style="fill:none;stroke:#ffae67;stroke-width:0.7;stroke-linecap:round;stroke-linejoin:miter;stroke-dasharray:none;stroke-opacity:1"
     d="m 34.688417,61.736257 4.283842,-1.542853"
     id="path12-6-5-7" />
  <path
     style="fill:none;stroke:#ffae67;stroke-width:0.7;stroke-linecap:round;stroke-linejoin:miter;stroke-dasharray:none;stroke-opacity:1"
     d="m 34.294136,59.59254 3.869069,-1.542853"
     id="path12-6-5-7-9" />
  <path
     style="fill:none;stroke:#ffae67;stroke-width:0.7;stroke-linecap:round;stroke-linejoin:miter;stroke-dasharray:none;stroke-opacity:1"
     d="m 33.792213,57.425264 3.869069,-1.542853"
     id="path12-6-5-7-9-6" />
  <path
     style="fill:none;stroke:#ffae67;stroke-width:0.7;stroke-linecap:round;stroke-linejoin:miter;stroke-dasharray:none;stroke-opacity:1"
     d="m 29.51051,45.033841 3.869069,-1.542853"
     id="path12-6-5-7-9-6-5" />
  <path
     style="fill:none;stroke:#ffae67;stroke-width:0.7;stroke-linecap:round;stroke-linejoin:miter;stroke-dasharray:none;stroke-opacity:1"
     d="M 28.974481,43.557112 32.84355,42.014259"
     id="path12-6-5-7-9-6-2" />
  <path
     style="fill:none;stroke:#ffae67;stroke-width:0.7;stroke-linecap:round;stroke-linejoin:miter;stroke-dasharray:none;stroke-opacity:1"
     d="m 28.350074,42.17572 3.869069,-1.542853"
     id="path12-6-5-7-9-6-8" />
  <path
     style="fill:none;stroke:#ffae67;stroke-width:0.7;stroke-linecap:round;stroke-linejoin:miter;stroke-dasharray:none;stroke-opacity:1"
     d="m 35.288734,69.053341 2.427001,0.25223"
     id="path12-6-5-5" />
  <path
     style="fill:none;stroke:#ffae67;stroke-width:0.7;stroke-linecap:round;stroke-linejoin:miter;stroke-dasharray:none;stroke-opacity:1"
     d="m 37.799961,67.469951 2.052672,-0.114838"
     id="path12-6-5-5-2" />
  <path
     style="fill:none;stroke:#ffae67;stroke-width:0.7;stroke-linecap:round;stroke-linejoin:miter;stroke-dasharray:none;stroke-opacity:1"
     d="m 32.843512,55.584462 2.111341,-0.867328"
     id="path12-6-5-5-2-6" />
  <path
     style="fill:none;stroke:#ffae67;stroke-width:0.7;stroke-linecap:round;stroke-linejoin:miter;stroke-dasharray:none;stroke-opacity:1"
     d="m 34.666967,53.454531 2.111341,-0.867328"
     id="path12-6-5-5-2-6-6" />
  <path
     style="fill:none;stroke:#ffae67;stroke-width:0.7;stroke-linecap:round;stroke-linejoin:miter;stroke-dasharray:none;stroke-opacity:1"
     d="m 33.975302,51.656442 2.111341,-0.867328"
     id="path12-6-5-5-2-6-8" />
  <path
     style="fill:none;stroke:#ffae67;stroke-width:0.7;stroke-linecap:round;stroke-linejoin:miter;stroke-dasharray:none;stroke-opacity:1"
     d="m 33.275503,49.816666 2.111341,-0.867328"
     id="path12-6-5-5-2-6-9" />
  <path
     style="fill:none;stroke:#ffae67;stroke-width:0.7;stroke-linecap:round;stroke-linejoin:miter;stroke-dasharray:none;stroke-opacity:1"
     d="m 32.857814,47.935816 2.111341,-0.867328"
     id="path12-6-5-5-2-6-0" />
  <path
     style="fill:none;stroke:#ffae67;stroke-width:0.7;stroke-linecap:round;stroke-linejoin:miter;stroke-dasharray:none;stroke-opacity:1"
     d="M 29.713634,47.271768 31.824975,46.40444"
     id="path12-6-5-5-2-6-0-3" />
  <path
     style="fill:none;stroke:#ffae67;stroke-width:0.7;stroke-linecap:round;stroke-linejoin:miter;stroke-dasharray:none;stroke-opacity:1"
     d="m 26.415382,37.889577 2.111341,-0.867328"
     id="path12-6-5-5-2-6-0-3-6" />
</svg>
